<svg width="260" height="310" viewBox="0 0 260 310" fill="none"
  xmlns="http://www.w3.org/2000/svg">
  <path fill-rule="evenodd" clip-rule="evenodd" d="M185 274C188.038 274 190.5 271.538 190.5 268.5C190.5 265.462 188.038 263 185 263C181.962 263 179.5 265.462 179.5 268.5C179.5 271.538 181.962 274 185 274ZM260 290.6C260 283.9 254.6 278.5 248 278.5C245.2 278.5 242.6 279.5 240.5 281.1V265C240.5 264.4 240.1 264 239.5 264H231.5C230.9 264 230.5 264.4 230.5 265V308C230.5 308.6 230.9 309 231.5 309H239.5C240.1 309 240.5 308.6 240.5 308V292.5C240.5 290 242.3 287.8 244.8 287.6C247.6 287.3 250 289.6 250 292.3V294V308C250 308.6 250.4 309 251 309H259C259.6 309 260 308.6 260 308V294V290.6ZM216.575 292.1C214.765 291.138 212.592 290.646 210.863 290.255C209.715 289.995 208.763 289.779 208.242 289.5C207.54 289 207.038 288.3 207.038 287.5C207.038 286.1 208.343 285 210.05 285C211.756 285 213.061 286.1 213.061 287.5C213.061 287.8 213.262 288 213.563 288H221.093C221.394 288 221.595 287.8 221.595 287.5V287.2C221.595 282.1 216.475 278 210.05 278C203.624 278 198.504 282.1 198.504 287.2C198.504 290.7 200.913 293.7 204.427 295.3C206.234 296.1 209.447 297.2 211.054 297.6C212.76 298 213.563 299 213.563 300.2C213.563 301.7 211.957 303 210.05 303C208.142 303 206.536 301.8 206.536 300.2V299.7C206.536 299.4 206.335 299.2 206.034 299.2H198.002C197.701 299.2 197.5 299.4 197.5 299.7V300.2C197.5 305.6 203.022 310 209.748 310C216.475 310 221.997 305.6 221.997 300.2C222.097 296.9 219.888 293.8 216.575 292.1ZM189 309H181C180.4 309 180 308.6 180 308V280C180 279.4 180.4 279 181 279H189C189.6 279 190 279.4 190 280V308C190 308.6 189.6 309 189 309ZM155 279V277C155 269.8 160.8 264 168 264H173C173.6 264 174 264.4 174 265V272C174 272.6 173.6 273 173 273H168C166.3 273 165 274.3 165 276V279H172C172.6 279 173 279.4 173 280V285.7C173 286.3 172.6 286.7 172 286.7H165V308C165 308.6 164.6 309 164 309H156C155.4 309 155 308.6 155 308V286.7H151C150.4 286.7 150 286.3 150 285.7V280C150 279.4 150.4 279 151 279H155ZM140 310C143.038 310 145.5 307.538 145.5 304.5C145.5 301.462 143.038 299 140 299C136.962 299 134.5 301.462 134.5 304.5C134.5 307.538 136.962 310 140 310ZM107.5 278.5C110.2 278.5 112.8 279.4 115 280.8V265C115 264.4 115.4 264 116 264H124C124.6 264 125 264.4 125 265V308C125 308.6 124.6 309 124 309H116C115.4 309 115 308.6 115 308V307.2C112.8 308.7 110.2 309.5 107.5 309.5C99.5 309.5 93 302.6 93 294C93 285.4 99.5 278.5 107.5 278.5ZM102.5 294C102.5 297.6 105.4 300.5 109 300.5C112.6 300.5 115.5 297.6 115.5 294C115.5 290.4 112.6 287.5 109 287.5C105.4 287.5 102.5 290.4 102.5 294ZM77 280.8C74.8 279.4 72.2 278.5 69.5 278.5C61.5 278.5 55 285.4 55 294C55 302.6 61.5 309.5 69.5 309.5C72.2 309.5 74.8 308.7 77 307.2V308C77 308.6 77.4 309 78 309H86C86.6 309 87 308.6 87 308V280C87 279.4 86.6 279 86 279H78C77.4 279 77 279.4 77 280V280.8ZM71 300.5C67.4 300.5 64.5 297.6 64.5 294C64.5 290.4 67.4 287.5 71 287.5C74.6 287.5 77.5 290.4 77.5 294C77.5 297.6 74.6 300.5 71 300.5ZM26.8 282.7C29.1 280.1 32.6 278.5 36.5 278.5C43.4 278.5 49 283.6 49 290V308C49 308.6 48.6 309 48 309H40C39.4 309 39 308.6 39 308V292.3C39 289.6 36.6 287.3 33.8 287.6C31.3 287.8 29.5 290 29.5 292.5V308C29.5 308.6 29.1 309 28.5 309H20.5C19.9 309 19.5 308.6 19.5 308V292.3C19.5 289.6 17.1 287.3 14.3 287.6C11.8 287.8 10 290 10 292.5V308C10 308.6 9.6 309 9 309H1C0.4 309 0 308.6 0 308V280C0 279.4 0.4 279 1 279H8.9C9.5 279 9.9 279.4 9.9 280V281.4C12 279.6 14.7 278.5 17.7 278.5C21.4 278.5 24.6 280.1 26.8 282.7Z" fill="url(#paint0_linear_123_452)"/>
  <path d="M230 185C238.3 185 245 178.3 245 170V80C245 71.7 238.3 65 230 65C221.7 65 215 71.7 215 80C215 82.8 217.2 85 220 85C222.8 85 225 82.8 225 80C225 77.2 227.2 75 230 75C232.8 75 235 77.2 235 80V170C235 172.8 232.8 175 230 175C227.2 175 225 172.8 225 170V110C225 101.7 218.3 95 210 95C207.2 95 205 92.8 205 90V50C205 47.2 207.2 45 210 45C212.8 45 215 47.2 215 50C215 52.8 217.2 55 220 55C222.8 55 225 52.8 225 50C225 41.7 218.3 35 210 35C201.7 35 195 41.7 195 50V110V130C195 132.8 192.8 135 190 135C187.2 135 185 132.8 185 130V110V55C185 24.7 160.3 0 130 0C99.7 0 75 24.7 75 55V110V130C75 132.8 72.8 135 70 135C67.2 135 65 132.8 65 130V110V50C65 41.7 58.3 35 50 35C41.7 35 35 41.7 35 50C35 52.8 37.2 55 40 55C42.8 55 45 52.8 45 50C45 47.2 47.2 45 50 45C52.8 45 55 47.2 55 50V90C55 92.8 52.8 95 50 95C41.7 95 35 101.7 35 110V170C35 172.8 32.8 175 30 175C27.2 175 25 172.8 25 170V80C25 77.2 27.2 75 30 75C32.8 75 35 77.2 35 80C35 82.8 37.2 85 40 85C42.8 85 45 82.8 45 80C45 71.7 38.3 65 30 65C21.7 65 15 71.7 15 80V170C15 178.3 21.7 185 30 185C38.3 185 45 178.3 45 170V110C45 107.2 47.2 105 50 105C52.8 105 55 107.2 55 110V130C55 138.3 61.7 145 70 145C78.3 145 85 138.3 85 130V110C85 107.2 87.2 105 90 105C92.8 105 95 107.2 95 110V120V180C95 182.8 92.8 185 90 185C87.2 185 85 182.8 85 180V170C85 161.7 78.3 155 70 155C61.7 155 55 161.7 55 170V200C55 202.8 52.8 205 50 205C47.2 205 45 202.8 45 200C45 197.2 42.8 195 40 195C37.2 195 35 197.2 35 200C35 208.3 41.7 215 50 215C58.3 215 65 208.3 65 200V170C65 167.2 67.2 165 70 165C72.8 165 75 167.2 75 170V180C75 188.3 81.7 195 90 195C98.3 195 105 188.3 105 180V120C105 117.2 107.2 115 110 115C112.8 115 115 117.2 115 120V230C115 232.8 112.8 235 110 235C107.2 235 105 232.8 105 230V220C105 211.7 98.3 205 90 205C81.7 205 75 211.7 75 220C75 222.8 77.2 225 80 225C82.8 225 85 222.8 85 220C85 217.2 87.2 215 90 215C92.8 215 95 217.2 95 220V230C95 238.3 101.7 245 110 245C118.3 245 125 238.3 125 230V120V100C125 97.2 127.2 95 130 95C132.8 95 135 97.2 135 100V120V230C135 238.3 141.7 245 150 245C158.3 245 165 238.3 165 230V220C165 217.2 167.2 215 170 215C172.8 215 175 217.2 175 220C175 222.8 177.2 225 180 225C182.8 225 185 222.8 185 220C185 211.7 178.3 205 170 205C161.7 205 155 211.7 155 220V230C155 232.8 152.8 235 150 235C147.2 235 145 232.8 145 230V120C145 117.2 147.2 115 150 115C152.8 115 155 117.2 155 120V180C155 188.3 161.7 195 170 195C178.3 195 185 188.3 185 180V170C185 167.2 187.2 165 190 165C192.8 165 195 167.2 195 170V200C195 208.3 201.7 215 210 215C218.3 215 225 208.3 225 200C225 197.2 222.8 195 220 195C217.2 195 215 197.2 215 200C215 202.8 212.8 205 210 205C207.2 205 205 202.8 205 200V170C205 161.7 198.3 155 190 155C181.7 155 175 161.7 175 170V180C175 182.8 172.8 185 170 185C167.2 185 165 182.8 165 180V120V110C165 107.2 167.2 105 170 105C172.8 105 175 107.2 175 110V130C175 138.3 181.7 145 190 145C198.3 145 205 138.3 205 130V110C205 107.2 207.2 105 210 105C212.8 105 215 107.2 215 110V170C215 178.3 221.7 185 230 185ZM105 80C105 82.8 102.8 85 100 85C97.2 85 95 82.8 95 80V75C95 72.2 97.2 70 100 70C102.8 70 105 72.2 105 75V80ZM165 80C165 82.8 162.8 85 160 85C157.2 85 155 82.8 155 80V75C155 72.2 157.2 70 160 70C162.8 70 165 72.2 165 75V80ZM170 60H160C153.5 60 147.9 64.2 145.9 70H114.2C112.1 64.2 106.6 60 100.1 60H90C87.2 60 85 57.8 85 55C85 30.2 105.2 10 130 10C154.8 10 175 30.2 175 55C175 57.8 172.8 60 170 60Z" fill="url(#paint1_linear_123_452)"/>
  <path d="M155 75V80C155 82.8 157.2 85 160 85C162.8 85 165 82.8 165 80V75C165 72.2 162.8 70 160 70C157.2 70 155 72.2 155 75Z"/>
  <path d="M95 80C95 82.8 97.2 85 100 85C102.8 85 105 82.8 105 80V75C105 72.2 102.8 70 100 70C97.2 70 95 72.2 95 75V80Z"/>
  <path d="M90 60H100C106.5 60 112.1 64.2 114.1 70H145.8C147.9 64.2 153.4 60 159.9 60H169.9C172.7 60 174.9 57.8 174.9 55C174.9 30.2 154.7 10 129.9 10C105.1 10 85 30.2 85 55C85 57.8 87.2 60 90 60Z"/>
  <defs>
    <linearGradient id="paint0_linear_123_452" x1="130" y1="263" x2="130" y2="310" gradientUnits="userSpaceOnUse">
      <stop stop-color="#0E284A"/>
      <stop offset="1" stop-color="#0ACAA0"/>
    </linearGradient>
    <linearGradient id="paint1_linear_123_452" x1="130" y1="0" x2="130" y2="245" gradientUnits="userSpaceOnUse">
      <stop stop-color="#0ACAA0"/>
      <stop offset="1" stop-color="#0E284A"/>
    </linearGradient>
  </defs>
</svg>
